<?xml version="1.0" encoding="UTF-8"?>
<!DOCTYPE svg PUBLIC "-//W3C//DTD SVG 1.1//EN" "http://www.w3.org/Graphics/SVG/1.1/DTD/svg11.dtd">
<!-- Creator: CorelDRAW 2020 (64-Bit) -->
<svg xmlns="http://www.w3.org/2000/svg" xml:space="preserve" width="68.8525mm" height="15.9078mm" version="1.1" style="shape-rendering:geometricPrecision; text-rendering:geometricPrecision; image-rendering:optimizeQuality; fill-rule:evenodd; clip-rule:evenodd"
viewBox="0 0 6885.24 1590.78"
 xmlns:xlink="http://www.w3.org/1999/xlink"
 xmlns:xodm="http://www.corel.com/coreldraw/odm/2003">
 <defs>
  <style type="text/css">
   <![CDATA[
    .fil3 {fill:#5DBAB4}
    .fil4 {fill:white}
    .fil0 {fill:#1A1A1A;fill-rule:nonzero}
    .fil2 {fill:#414E4F;fill-rule:nonzero}
    .fil1 {fill:#5DBAB4;fill-rule:nonzero}
   ]]>
  </style>
 </defs>
 <g id="Layer_x0020_1">
  <metadata id="CorelCorpID_0Corel-Layer"/>
  <g id="_2663296012896">
   <path class="fil0" d="M6734.88 110.91l0 -85.62 -31.97 0 0 -11.38 76.81 0 0 11.38 -31.97 0 0 85.62 -12.87 0zm57.83 0l0 -97 19.24 0 22.94 68.66c2.12,6.39 3.66,11.18 4.63,14.36 1.11,-3.52 2.84,-8.71 5.19,-15.55l23.35 -67.47 17.18 0 0 97 -12.32 0 0 -81.15 -28.32 81.15 -11.56 0 -28 -82.64 0 82.64 -12.33 0z"/>
   <path class="fil1" d="M2049.49 50.35l0 707.05c0,38.64 6.35,75.07 19.04,109.29 12.7,34.22 30.64,64.03 53.82,89.42 23.18,25.39 51.06,45.53 83.62,60.44 32.57,14.9 68.17,22.35 106.8,22.35 38.64,0 73.97,-7.45 105.98,-22.35 32.01,-14.91 59.61,-35.05 82.79,-60.44 23.18,-25.39 41.12,-55.2 53.82,-89.42 12.69,-34.22 19.04,-70.65 19.04,-109.29l0 -707.05c0,-9.93 3.59,-18.49 10.76,-25.66 7.18,-7.18 16.28,-10.77 27.32,-10.77l163.93 0c9.94,0 19.32,3.31 28.15,9.94 8.83,6.62 13.25,15.45 13.25,26.49l0 707.05c0,69.55 -13.25,134.96 -39.74,196.22 -26.49,61.27 -62.65,114.81 -108.46,160.62 -45.81,45.81 -99.35,81.97 -160.62,108.46 -61.26,26.49 -126.67,39.74 -196.22,39.74 -69.54,0 -135.23,-13.25 -197.04,-39.74 -61.82,-26.49 -115.64,-62.65 -161.45,-108.46 -45.81,-45.81 -81.97,-99.35 -108.46,-160.62 -26.49,-61.26 -39.74,-126.67 -39.74,-196.22l0 -707.05c0,-8.83 3.31,-17.11 9.94,-24.84 6.62,-7.72 14.9,-11.59 24.83,-11.59l170.56 0c8.83,0 17.38,3.59 25.66,10.77 8.28,7.17 12.42,15.73 12.42,25.66z"/>
   <path class="fil1" d="M2945.8 37.29c0,-10.17 3.03,-18.93 9.1,-26.27 6.08,-7.35 15.18,-11.02 27.32,-11.02l193.74 0c8.83,0 17.93,1.97 27.32,5.93 9.39,3.95 16.28,10.45 20.7,19.49l544.77 801.82 0 -801.82c3.31,-10.17 8.55,-16.95 15.73,-20.34 7.17,-3.39 14.08,-5.08 20.7,-5.08l167.24 0c8.83,0 17.66,3.39 26.49,10.17 8.84,6.78 13.25,15.82 13.25,27.12l0 1183.24c0,24.86 -13.25,37.29 -39.74,37.29l-163.93 0c-13.24,0 -22.9,-2.54 -28.98,-7.63 -6.07,-5.08 -12.42,-11.58 -19.04,-19.49l-574.58 -847.59 0 837.42c1.11,24.86 -11.04,37.29 -36.42,37.29l-167.25 0c-24.28,0 -36.42,-12.43 -36.42,-37.29l0 -1183.24z"/>
   <path class="fil1" d="M5031.83 961.28c22.08,-16.34 39.75,-16.34 52.99,0l82.8 138.83c8.83,9.8 12.14,18.24 9.93,25.32 -2.21,7.08 -8.28,14.43 -18.22,22.05 -47.46,34.85 -100.45,62.61 -158.95,83.3 -58.51,20.69 -125.3,31.04 -200.37,31.04 -87.2,0 -169.45,-16.34 -246.72,-49 -77.26,-32.67 -144.88,-77.32 -202.84,-133.94 -57.96,-56.62 -103.49,-123.05 -136.61,-199.27 -33.12,-76.23 -49.67,-157.35 -49.67,-243.37 0,-87.12 16.55,-168.24 49.67,-243.38 33.12,-75.13 78.65,-141.01 136.61,-197.63 57.96,-56.63 125.58,-101 202.84,-133.12 77.27,-32.13 159.52,-48.19 246.72,-48.19 75.07,0 141.86,10.07 200.37,30.22 58.5,20.14 112.04,47.64 160.62,82.48 8.83,7.63 13.24,15.25 13.24,22.87 0,7.62 -1.1,13.61 -3.31,17.97l-87.76 147c-9.93,13.07 -25.39,13.61 -46.37,1.64 -38.63,-23.96 -76.44,-42.47 -113.42,-55.54 -36.98,-13.07 -78.1,-19.6 -123.37,-19.6 -56.29,0 -108.17,10.07 -155.64,30.22 -47.47,20.14 -88.59,48.18 -123.36,84.12 -34.78,35.93 -62.1,77.85 -81.97,125.77 -19.87,47.91 -29.8,99.63 -29.8,155.17 0,55.53 9.93,107.53 29.8,155.98 19.87,48.46 47.19,90.93 81.97,127.41 34.77,36.47 75.89,65.33 123.36,86.56 47.47,21.24 99.35,31.86 155.64,31.86 45.27,0 88.04,-7.35 128.34,-22.06 40.28,-14.7 74.78,-32.93 103.48,-54.71z"/>
   <path class="fil1" d="M5661.03 797.02c7.49,28.3 17.06,55.94 28.7,82.93 18.37,42.53 40.53,81.98 66.47,118.31l1.54 0.01c49.89,0 96.26,-9.48 139.16,-28.43 33.76,-14.92 63.98,-34.01 90.62,-57.27 -32.78,-34.63 -58.63,-75.14 -77.61,-121.51 -19.57,-47.84 -29.36,-98.94 -29.36,-153.31 0,-55.46 9.79,-107.11 29.36,-154.94 18.98,-46.38 44.85,-86.87 77.62,-121.51l-0.36 -0.31c16.19,-17.29 33.86,-32.85 52.99,-46.69 39.89,-28.83 84.65,-49.36 134.28,-61.56 36.16,-8.88 73.36,-12.02 111.58,-9.41l0.18 0.24c3.84,0.18 7.66,0.43 11.46,0.73 3.68,0.36 7.35,0.78 11.04,1.24l0.22 -0.2c38.09,4.1 74.17,13.65 108.22,28.7 46.75,20.66 87.26,48.66 121.51,84 34.24,35.33 60.89,76.93 79.92,124.77 19.02,47.83 28.55,99.49 28.54,154.94 0.01,54.37 -9.52,105.47 -28.54,153.31 -19.03,47.84 -45.68,89.43 -79.93,124.77 -34.24,35.33 -74.75,63.34 -121.5,83.99 -40.75,18.01 -84.4,28.16 -130.94,30.47 -17.12,22.5 -35.71,43.79 -55.78,63.86 -52.07,52.07 -112.28,94.4 -180.64,127 68.09,25.33 140,37.99 215.68,37.99 85.9,0 166.63,-16.31 242.2,-48.92 75.56,-32.62 141.35,-76.93 197.35,-132.92 56,-56 100.03,-121.78 132.11,-197.35 32.07,-75.57 48.11,-156.3 48.11,-242.2 0,-86.99 -16.04,-168.26 -48.11,-243.84 -32.08,-75.56 -76.11,-141.35 -132.11,-197.34 -56,-56 -121.79,-100.31 -197.35,-132.93 -59.98,-25.88 -123.21,-41.5 -189.7,-46.84 -66.77,-6.46 -132.1,-2.13 -196.01,13 -80.09,18.96 -152.59,51.13 -217.48,96.53 -64.89,45.37 -119.71,102.49 -164.46,171.31 -24.96,38.4 -45.31,79.41 -61.06,123.04 -18.07,48.26 -29.72,98.76 -34.95,151.51 -7.73,69.61 -3.93,137.62 11.36,204.06 1.63,7.06 3.36,14.06 5.2,21l0.47 -0.23z"/>
   <path class="fil1" d="M6357.08 476.02c-7.49,-28.29 -17.06,-55.94 -28.71,-82.92 -18.36,-42.54 -40.52,-81.98 -66.46,-118.31l-1.55 -0.02c-49.88,0 -96.25,9.48 -139.15,28.43 -33.76,14.92 -63.99,34.02 -90.63,57.28 32.78,34.63 58.64,75.13 77.62,121.5 19.56,47.85 29.35,98.95 29.35,153.32 0,55.46 -9.79,107.1 -29.35,154.94 -18.98,46.37 -44.85,86.87 -77.63,121.5l0.37 0.32c-16.2,17.28 -33.86,32.85 -53,46.69 -39.88,28.83 -84.65,49.35 -134.28,61.55 -36.16,8.89 -73.35,12.03 -111.57,9.41l-0.18 -0.23c-3.84,-0.19 -7.67,-0.43 -11.47,-0.73 -3.67,-0.36 -7.34,-0.78 -11.04,-1.25l-0.22 0.2c-38.09,-4.09 -74.16,-13.64 -108.22,-28.7 -46.75,-20.65 -87.25,-48.65 -121.5,-83.99 -34.25,-35.34 -60.9,-76.93 -79.92,-124.77 -19.02,-47.84 -28.55,-99.49 -28.54,-154.94 -0.01,-54.37 9.52,-105.48 28.54,-153.32 19.03,-47.83 45.67,-89.42 79.92,-124.77 34.25,-35.33 74.75,-63.33 121.5,-83.99 40.76,-18.01 84.41,-28.16 130.95,-30.46 17.11,-22.5 35.71,-43.79 55.78,-63.87 52.06,-52.06 112.27,-94.39 180.64,-126.99 -68.1,-25.34 -140,-38 -215.69,-38 -85.9,0 -166.63,16.31 -242.2,48.93 -75.56,32.62 -141.35,76.93 -197.34,132.92 -56,56 -100.03,121.78 -132.11,197.35 -32.07,75.57 -48.12,156.3 -48.11,242.2 -0.01,86.98 16.04,168.26 48.11,243.84 32.08,75.56 76.11,141.35 132.11,197.34 55.99,56 121.78,100.31 197.34,132.92 59.98,25.89 123.21,41.51 189.7,46.84 66.78,6.46 132.11,2.13 196.02,-13 80.08,-18.95 152.58,-51.13 217.47,-96.52 64.89,-45.38 119.71,-102.5 164.46,-171.31 24.96,-38.4 45.32,-79.41 61.06,-123.04 18.08,-48.27 29.72,-98.76 34.95,-151.52 7.73,-69.6 3.94,-137.62 -11.36,-204.05 -1.63,-7.06 -3.36,-14.06 -5.19,-21l-0.47 0.22z"/>
   <g>
    <path class="fil2" d="M1962.26 1409.71c0,-5.08 -0.97,-9.91 -2.92,-14.49 -1.95,-4.58 -4.62,-8.6 -8.01,-12.08 -3.39,-3.48 -7.38,-6.27 -11.96,-8.39 -4.57,-2.12 -9.58,-3.18 -15,-3.18l-57.22 0 0 76.29 57.47 0c5.43,0 10.43,-1.02 15.01,-3.05 4.58,-2.03 8.52,-4.79 11.82,-8.27 3.31,-3.47 5.94,-7.54 7.89,-12.2 1.95,-4.66 2.92,-9.54 2.92,-14.63zm-116.98 123.35l0 -177c0,-4.07 1.86,-6.11 5.59,-6.11l73.5 0c8.31,0 16.11,1.57 23.4,4.71 7.29,3.13 13.6,7.41 18.94,12.84 5.34,5.42 9.58,11.78 12.72,19.07 3.13,7.29 4.7,15.09 4.7,23.4 0,12.04 -3.22,22.89 -9.66,32.55 -6.44,9.66 -14.84,16.87 -25.18,21.62l33.57 68.92c0.34,1.35 0.51,2.11 0.51,2.28 0,2.21 -1.53,3.31 -4.58,3.31l-13.99 0c-1.69,0 -3,-0.42 -3.94,-1.27 -0.93,-0.85 -1.82,-2.04 -2.67,-3.56l-30.77 -64.6c-0.51,0 -1.44,0.05 -2.8,0.13 -1.35,0.09 -2.84,0.13 -4.45,0.13 -1.61,0 -3.22,0 -4.83,0 -1.61,0 -2.84,0 -3.69,0l-44.5 0 0 63.58c0,3.73 -1.87,5.59 -5.6,5.59l-10.68 0c-3.73,0 -5.59,-1.86 -5.59,-5.59zm283.23 8.64c-8.31,0 -16.11,-1.69 -23.4,-5.08 -7.29,-3.4 -13.65,-8.02 -19.07,-13.86 -5.43,-5.85 -9.71,-12.76 -12.85,-20.73 -3.13,-7.97 -4.7,-16.45 -4.7,-25.43 0,-8.99 1.57,-17.46 4.7,-25.43 3.14,-7.97 7.42,-14.92 12.85,-20.86 5.42,-5.93 11.78,-10.59 19.07,-13.98 7.29,-3.39 15.09,-5.09 23.4,-5.09 7.8,0 15.13,1.57 21.99,4.71 6.87,3.13 12.89,7.41 18.06,12.84 5.17,5.42 9.28,11.78 12.33,19.07 3.06,7.29 4.58,15.09 4.58,23.4l0 3.05c0,5.09 -1.61,8.31 -4.83,9.66 -3.22,1.36 -7.12,2.04 -11.7,2.04l-78.07 0c1.52,10.09 5.81,18.31 12.84,24.62 7.04,6.32 15.3,9.46 24.8,9.46 5.08,0 10.21,-0.94 15.38,-2.8 5.17,-1.87 9.79,-4.49 13.86,-7.89 1.19,-1.18 2.72,-1.78 4.58,-1.78 1.19,0 2.12,0.51 2.8,1.53l7.12 10.68c0.68,0.68 1.02,1.44 1.02,2.33 -0.17,1.19 -0.73,2.21 -1.66,3.05 -0.93,0.89 -1.82,1.57 -2.67,2.08 -5.76,3.94 -11.95,7.33 -18.56,10.17 -6.61,2.84 -13.9,4.24 -21.87,4.24zm-36.62 -74.51l71.97 0c-0.85,-4.71 -2.38,-9.16 -4.58,-13.39 -2.21,-4.2 -4.92,-7.85 -8.14,-10.98 -3.22,-3.1 -6.82,-5.55 -10.81,-7.29 -3.98,-1.78 -8.09,-2.67 -12.33,-2.67 -4.41,0 -8.56,0.89 -12.46,2.67 -3.9,1.74 -7.42,4.19 -10.56,7.29 -3.13,3.13 -5.85,6.78 -8.13,10.98 -2.29,4.23 -3.95,8.68 -4.96,13.39zm279.66 65.1l0 -11.95c-3.73,5.76 -8.47,10.68 -14.24,14.75 -5.76,4.07 -13.82,6.1 -24.16,6.1 -8.81,0 -16.95,-1.65 -24.41,-4.96 -7.46,-3.3 -13.9,-7.88 -19.33,-13.73 -5.42,-5.85 -9.62,-12.71 -12.59,-20.6 -2.96,-7.88 -4.45,-16.32 -4.45,-25.3 0,-8.99 1.49,-17.42 4.45,-25.31 2.97,-7.88 7.12,-14.75 12.46,-20.59 5.34,-5.85 11.74,-10.47 19.2,-13.86 7.46,-3.4 15.69,-5.09 24.67,-5.09 5.26,0 9.84,0.59 13.74,1.82 3.89,1.19 7.37,2.76 10.42,4.75 3.05,1.95 5.72,4.24 8.01,6.82 2.29,2.55 4.37,5.22 6.23,7.97l1.02 -12.88c0.17,-2.08 0.68,-3.65 1.53,-4.75 0.84,-1.15 2.37,-1.7 4.57,-1.7l7.38 0c1.86,0 3.43,0.55 4.7,1.66 1.28,1.1 1.91,2.67 1.91,4.7l0 112.92c0,1.69 -0.63,3.05 -1.91,4.06 -1.27,1.02 -2.84,1.53 -4.7,1.53l-8.14 0c-4.24,0 -6.36,-2.12 -6.36,-6.36zm-78.07 -55.56c0,5.93 0.93,11.48 2.8,16.74 1.86,5.21 4.53,9.83 8.01,13.82 3.47,3.98 7.67,7.07 12.59,9.36 4.91,2.29 10.34,3.44 16.27,3.44 6.11,0 11.53,-1.11 16.28,-3.31 4.75,-2.2 8.77,-5.17 12.08,-8.99 3.3,-3.81 5.8,-8.35 7.5,-13.56 1.7,-5.26 2.54,-10.89 2.54,-17 0,-5.93 -0.84,-11.52 -2.54,-16.87 -1.7,-5.34 -4.15,-9.96 -7.37,-13.94 -3.23,-3.98 -7.21,-7.12 -11.96,-9.49 -4.74,-2.38 -10.25,-3.56 -16.53,-3.56 -6.1,0 -11.61,1.14 -16.53,3.43 -4.91,2.29 -9.07,5.38 -12.46,9.37 -3.39,3.98 -6.02,8.6 -7.88,13.81 -1.87,5.26 -2.8,10.81 -2.8,16.75zm231.86 -121.18l0 177.51c0,3.73 -1.87,5.59 -5.6,5.59l-10.68 0c-3.73,0 -5.59,-1.86 -5.59,-5.59l0 -177.51c0,-3.73 1.86,-5.6 5.59,-5.6l10.68 0c3.73,0 5.6,1.87 5.6,5.6zm132.68 63.83l0 113.68c0,3.73 -1.87,5.59 -5.6,5.59l-10.68 0c-3.73,0 -5.59,-1.86 -5.59,-5.59l0 -113.68c0,-3.73 1.86,-5.6 5.59,-5.6l10.68 0c3.73,0 5.6,1.87 5.6,5.6zm-26.96 -40.56c0,-4.37 1.57,-8.1 4.71,-11.24 3.13,-3.09 6.91,-4.66 11.31,-4.66 4.58,0 8.4,1.57 11.45,4.66 3.05,3.14 4.58,6.87 4.58,11.24 0,4.36 -1.53,8.05 -4.58,11.1 -3.05,3.01 -6.87,4.54 -11.45,4.54 -4.4,0 -8.18,-1.53 -11.31,-4.54 -3.14,-3.05 -4.71,-6.74 -4.71,-11.1zm228.3 159.83l-91.8 0c-1.87,0 -3.44,-0.64 -4.71,-1.91 -1.27,-1.27 -1.9,-2.84 -1.9,-4.7l0 -7.63c0,-0.68 0.08,-1.4 0.25,-2.16 0.17,-0.77 0.42,-1.4 0.76,-1.91 4.24,-4.92 9.75,-11.19 16.53,-18.82 6.78,-7.63 13.78,-15.6 20.98,-23.9 7.21,-8.31 14.2,-16.32 20.98,-24.04 6.79,-7.71 12.3,-13.94 16.53,-18.69l-68.15 0c-4.41,0 -6.61,-2.37 -6.61,-7.12l0 -7.37c0,-4.41 2.2,-6.62 6.61,-6.62l89.52 0c2.03,0 3.68,0.47 4.96,1.4 1.27,0.93 1.9,2.33 1.9,4.2l0 9.15c0,2.38 -0.25,4.03 -0.76,4.96 -0.51,0.94 -1.44,2.16 -2.8,3.69l-70.7 80.87 68.41 0c1.87,0 3.39,0.51 4.58,1.53 1.19,1.01 1.78,2.62 1.78,4.83l0 7.63c0,1.69 -0.59,3.22 -1.78,4.58 -1.19,1.35 -2.71,2.03 -4.58,2.03zm132.43 -119.27l0 113.68c0,3.73 -1.87,5.59 -5.6,5.59l-10.68 0c-3.73,0 -5.59,-1.86 -5.59,-5.59l0 -113.68c0,-3.73 1.86,-5.6 5.59,-5.6l10.68 0c3.73,0 5.6,1.87 5.6,5.6zm-26.96 -40.56c0,-4.37 1.57,-8.1 4.71,-11.24 3.13,-3.09 6.91,-4.66 11.31,-4.66 4.58,0 8.4,1.57 11.45,4.66 3.05,3.14 4.58,6.87 4.58,11.24 0,4.36 -1.53,8.05 -4.58,11.1 -3.05,3.01 -6.87,4.54 -11.45,4.54 -4.4,0 -8.18,-1.53 -11.31,-4.54 -3.14,-3.05 -4.71,-6.74 -4.71,-11.1zm158.88 40.86l0.76 11.44c2.03,-2.37 4.66,-4.71 7.93,-7.08 3.22,-2.33 6.78,-4.41 10.68,-6.27 3.94,-1.82 8.01,-3.35 12.25,-4.49 4.23,-1.19 8.26,-1.78 11.99,-1.78 7.29,0 13.95,1.39 19.88,4.19 5.98,2.8 11.02,6.57 15.17,11.32 4.16,4.75 7.38,10.34 9.58,16.78 2.21,6.44 3.31,13.4 3.31,20.86l0 67.64c0,2.04 -0.59,3.6 -1.78,4.71 -1.23,1.1 -2.67,1.65 -4.41,1.65l-10.51 0c-2.42,0 -3.99,-0.51 -4.66,-1.53 -0.68,-1.01 -1.02,-2.54 -1.02,-4.57l0 -68.07c0,-4.24 -0.72,-8.31 -2.16,-12.13 -1.44,-3.81 -3.52,-7.12 -6.23,-9.91 -2.72,-2.84 -5.98,-5.09 -9.79,-6.79 -3.82,-1.69 -8.18,-2.54 -13.1,-2.54 -4.24,0 -8.56,0.76 -12.97,2.29 -4.41,1.53 -8.39,3.56 -11.95,6.1 -3.56,2.59 -6.49,5.47 -8.78,8.69 -2.29,3.22 -3.43,6.53 -3.43,9.92l0 72.95c0,3.73 -1.87,5.59 -5.6,5.59l-10.42 0c-3.9,0 -5.85,-1.86 -5.85,-5.59l0 -113.38c0,-1.87 0.55,-3.27 1.65,-4.2 1.1,-0.93 2.42,-1.4 3.94,-1.4l9.67 0c3.56,0 5.51,1.87 5.85,5.6zm285.52 115.41l0 -15.26c-2.04,2.54 -4.41,5.13 -7.12,7.76 -2.71,2.63 -5.72,4.96 -9.03,6.99 -3.31,2.04 -6.78,3.69 -10.43,4.96 -3.64,1.27 -7.41,1.91 -11.31,1.91 -8.65,0 -16.62,-1.7 -23.91,-5.09 -7.29,-3.39 -13.52,-8.01 -18.69,-13.86 -5.17,-5.85 -9.24,-12.71 -12.21,-20.6 -2.96,-7.88 -4.45,-16.32 -4.45,-25.3 0,-8.99 1.53,-17.46 4.58,-25.43 3.05,-7.97 7.25,-14.88 12.59,-20.73 5.34,-5.85 11.61,-10.47 18.82,-13.86 7.2,-3.39 14.96,-5.08 23.27,-5.08 8.64,0 16.15,1.9 22.5,5.72 6.36,3.81 11.49,8.43 15.39,13.86l0 -10.43c0,-1.86 0.51,-3.39 1.52,-4.58 1.02,-1.18 2.8,-1.78 5.35,-1.78l8.13 0c1.87,0 3.56,0.55 5.09,1.66 1.53,1.1 2.29,2.67 2.29,4.7l0 106.05c0,10.68 -1.57,20.05 -4.71,28.1 -3.13,8.05 -7.41,14.75 -12.92,20.09 -5.51,5.34 -12,9.32 -19.54,11.95 -7.51,2.63 -15.6,3.94 -24.21,3.94 -7.12,0 -13.47,-0.8 -19.15,-2.41 -5.68,-1.61 -10.94,-4.03 -15.86,-7.25 -2.03,-1.19 -3.05,-2.29 -3.05,-3.31 0,-0.34 0.17,-0.84 0.51,-1.52 0.34,-0.68 0.59,-1.1 0.76,-1.27l7.08 -12.21c0.85,-1.02 2.04,-1.53 3.56,-1.53 0.85,0 1.78,0.34 2.8,1.02 3.22,2.2 6.87,3.99 11.02,5.34 4.15,1.36 8.14,2.04 12.04,2.04 4.75,0 9.41,-0.81 14.07,-2.42 4.66,-1.61 8.82,-3.9 12.55,-6.87 3.73,-2.96 6.73,-6.57 9.11,-10.8 2.37,-4.24 3.56,-9.08 3.56,-14.5zm-75.28 -58.62c0,6.1 0.98,11.74 2.93,17 1.95,5.21 4.62,9.79 8.09,13.69 3.48,3.9 7.51,6.95 12.04,9.24 4.58,2.29 9.37,3.43 14.45,3.43 4.92,0 9.63,-1.1 14.2,-3.3 4.58,-2.21 8.56,-5.22 12.04,-9.12 3.48,-3.9 6.23,-8.43 8.35,-13.56 2.12,-5.17 3.18,-10.68 3.18,-16.62 0,-5.93 -0.98,-11.52 -2.93,-16.87 -1.95,-5.34 -4.62,-10 -8.09,-14.07 -3.48,-4.07 -7.5,-7.24 -12.04,-9.62 -4.58,-2.37 -9.45,-3.56 -14.71,-3.56 -5.08,0 -9.87,1.15 -14.45,3.43 -4.53,2.29 -8.56,5.39 -12.04,9.37 -3.47,3.99 -6.14,8.61 -8.09,13.82 -1.95,5.25 -2.93,10.81 -2.93,16.74zm549.5 -51.24c-11.19,26.45 -22.08,52.85 -32.68,79.22 -10.59,26.36 -21.4,52.68 -32.42,78.96 -1.36,2.88 -3.65,4.32 -6.87,4.32l-10.17 0c-3.9,0 -5.85,-1.44 -5.85,-4.32 0,-0.34 0.17,-1.19 0.51,-2.54l18.31 -44.76 -46.8 -113.43c-0.5,-1.18 -0.8,-2.2 -0.89,-3.05 -0.08,-0.84 -0.12,-1.44 -0.12,-1.78 0,-2.71 1.78,-4.07 5.34,-4.07l10.93 0c3.22,0 5.43,1.53 6.62,4.58 5.59,14.92 11.57,30.31 17.92,46.16 6.36,15.85 12.51,31.15 18.44,45.9l36.37 -92.57c1.35,-2.71 3.64,-4.07 6.86,-4.07l10.43 0c4.07,0 6.1,1.7 6.1,5.09 0,0.34 -0.08,0.89 -0.25,1.65 -0.17,0.77 -0.76,2.33 -1.78,4.71zm73.93 51.37c0,-8.99 1.7,-17.46 5.09,-25.43 3.39,-7.97 8.01,-14.92 13.86,-20.86 5.84,-5.93 12.75,-10.59 20.72,-13.98 7.97,-3.39 16.45,-5.09 25.43,-5.09 8.99,0 17.47,1.7 25.43,5.09 7.97,3.39 14.92,8.05 20.86,13.98 5.93,5.94 10.59,12.89 13.98,20.86 3.4,7.97 5.09,16.44 5.09,25.43 0,8.98 -1.69,17.46 -5.09,25.43 -3.39,7.97 -8.05,14.88 -13.98,20.73 -5.94,5.84 -12.89,10.46 -20.86,13.86 -7.96,3.39 -16.44,5.08 -25.43,5.08 -8.98,0 -17.46,-1.69 -25.43,-5.08 -7.97,-3.4 -14.88,-8.02 -20.72,-13.86 -5.85,-5.85 -10.47,-12.76 -13.86,-20.73 -3.39,-7.97 -5.09,-16.45 -5.09,-25.43zm20.6 0c0,6.1 1.19,11.87 3.56,17.29 2.37,5.43 5.55,10.17 9.54,14.24 3.98,4.07 8.68,7.29 14.11,9.67 5.43,2.37 11.19,3.56 17.29,3.56 6.11,0 11.87,-1.19 17.3,-3.56 5.42,-2.38 10.17,-5.6 14.24,-9.67 4.07,-4.07 7.29,-8.81 9.66,-14.24 2.37,-5.42 3.56,-11.19 3.56,-17.29 0,-6.11 -1.19,-11.87 -3.56,-17.29 -2.37,-5.43 -5.59,-10.22 -9.66,-14.37 -4.07,-4.16 -8.82,-7.42 -14.24,-9.79 -5.43,-2.38 -11.19,-3.56 -17.3,-3.56 -6.1,0 -11.86,1.18 -17.29,3.56 -5.43,2.37 -10.13,5.63 -14.11,9.79 -3.99,4.15 -7.17,8.94 -9.54,14.37 -2.37,5.42 -3.56,11.18 -3.56,17.29zm297.01 56.54l-2.34 -11.32c-3.9,4.88 -8.6,9.37 -14.11,13.48 -5.51,4.11 -12.25,6.15 -20.22,6.15 -7.29,0 -14.07,-1.4 -20.34,-4.2 -6.28,-2.8 -11.79,-6.57 -16.53,-11.32 -4.75,-4.74 -8.48,-10.34 -11.19,-16.78 -2.72,-6.44 -4.07,-13.31 -4.07,-20.6l0 -69.68c0,-1.36 0.42,-2.54 1.27,-3.56 0.89,-1.02 2.16,-1.53 3.86,-1.53l11.31 0c2.42,0 3.99,0.51 4.79,1.53 0.77,1.02 1.15,2.63 1.15,4.83l0 68.83c0,4.24 0.89,8.27 2.67,12 1.78,3.73 4.11,6.99 7.08,9.79 2.96,2.84 6.4,5.04 10.25,6.66 3.9,1.61 7.93,2.41 12.17,2.41 4.07,0 7.97,-0.8 11.78,-2.41 3.82,-1.62 7.12,-3.78 10,-6.53 2.89,-2.71 5.22,-5.94 7.08,-9.67 1.87,-3.73 2.88,-7.75 3.05,-11.99l0 -69.85c0,-3.73 2,-5.6 5.94,-5.6l10.51 0c3.94,0 5.93,1.87 5.93,5.6l0 113.68c0,3.73 -1.86,5.59 -5.63,5.59l-8.52 0c-3.95,0 -5.89,-1.82 -5.89,-5.51zm151.2 -113.85l1.27 9.29c2.2,-3.86 5.59,-7.63 10.17,-11.32 4.58,-3.69 10.77,-5.51 18.57,-5.51 2.88,0 5.72,0.42 8.52,1.27 2.79,0.81 5.34,1.78 7.63,2.88 2.28,1.11 4.15,2.21 5.59,3.39 1.44,1.19 2.16,2.17 2.16,3.01 0,0.34 -0.17,1.02 -0.51,2.04l-6.35 11.82c-1.02,1.7 -2.12,2.55 -3.31,2.55 -0.85,0 -1.48,-0.17 -1.91,-0.51 -0.42,-0.34 -0.8,-0.6 -1.14,-0.77 -1.7,-1.01 -3.82,-1.9 -6.36,-2.67 -2.54,-0.76 -5,-1.22 -7.37,-1.39 -3.73,0 -7.21,1.01 -10.43,3.05 -3.22,2.03 -5.94,4.62 -8.14,7.8 -2.2,3.13 -3.94,6.69 -5.21,10.68 -1.27,3.98 -1.91,7.97 -1.91,11.87l0 66.29c0,3.73 -1.87,5.59 -5.6,5.59l-10.42 0c-3.9,0 -5.85,-1.86 -5.85,-5.59l0 -113.68c0,-1.7 0.55,-3.05 1.65,-4.07 1.1,-1.02 2.42,-1.53 3.94,-1.53l9.16 0c1.86,0 3.26,0.55 4.2,1.61 0.93,1.11 1.48,2.42 1.65,3.9zm406.57 -63.74l0 177.51c0,3.73 -1.87,5.59 -5.6,5.59l-10.68 0c-3.73,0 -5.59,-1.86 -5.59,-5.59l0 -177.51c0,-3.73 1.86,-5.6 5.59,-5.6l10.68 0c3.73,0 5.6,1.87 5.6,5.6zm131.92 64.25l0.76 11.06c3.39,-4.87 8.18,-9.23 14.37,-13.09 6.19,-3.86 13.26,-5.77 21.23,-5.77 10.01,0 17.97,2.59 23.91,7.76 5.93,5.17 10.68,11.23 14.24,18.18 3.9,-7.63 9.45,-13.94 16.57,-18.94 7.17,-5 15.47,-7.5 25.01,-7.5 7.29,0 13.77,1.39 19.37,4.19 5.64,2.8 10.38,6.61 14.28,11.45 3.9,4.83 6.91,10.42 8.95,16.78 2.03,6.36 3.05,13.1 3.05,20.22l0 68.15c0,2.04 -0.6,3.6 -1.78,4.71 -1.23,1.1 -2.76,1.65 -4.66,1.65l-9.24 0c-4.45,0 -6.7,-2.03 -6.7,-6.1l0 -68.84c0,-8.52 -2.08,-15.72 -6.23,-21.66 -4.16,-5.97 -10.98,-8.94 -20.47,-8.94 -3.73,0 -7.51,0.76 -11.32,2.29 -3.82,1.53 -7.21,3.69 -10.17,6.53 -2.97,2.79 -5.39,6.06 -7.25,9.79 -1.87,3.73 -2.8,7.84 -2.8,12.25l0 68.32c0,4.24 -2.03,6.36 -6.1,6.36l-10.17 0c-2.21,0 -3.69,-0.51 -4.45,-1.53 -0.77,-1.01 -1.15,-2.54 -1.15,-4.57l0 -68.84c0,-8.69 -2.16,-15.93 -6.48,-21.78 -4.33,-5.89 -11.15,-8.82 -20.48,-8.82 -4.06,0 -8.01,0.81 -11.82,2.42 -3.82,1.61 -7.21,3.77 -10.17,6.52 -2.97,2.72 -5.3,5.9 -7,9.54 -1.69,3.65 -2.54,7.59 -2.54,11.87l0 69.6c0,3.73 -1.87,5.59 -5.6,5.59l-10.42 0c-3.9,0 -5.85,-1.86 -5.85,-5.59l0 -113.17c0,-3.73 1.86,-5.6 5.59,-5.6l9.67 0c3.56,0 5.51,1.82 5.85,5.51zm359.26 112.49l0 -11.95c-3.73,5.76 -8.47,10.68 -14.24,14.75 -5.76,4.07 -13.82,6.1 -24.16,6.1 -8.81,0 -16.95,-1.65 -24.41,-4.96 -7.46,-3.3 -13.9,-7.88 -19.33,-13.73 -5.42,-5.85 -9.62,-12.71 -12.59,-20.6 -2.96,-7.88 -4.45,-16.32 -4.45,-25.3 0,-8.99 1.49,-17.42 4.45,-25.31 2.97,-7.88 7.12,-14.75 12.46,-20.59 5.34,-5.85 11.74,-10.47 19.2,-13.86 7.46,-3.4 15.69,-5.09 24.67,-5.09 5.26,0 9.84,0.59 13.74,1.82 3.89,1.19 7.37,2.76 10.42,4.75 3.05,1.95 5.72,4.24 8.01,6.82 2.29,2.55 4.37,5.22 6.23,7.97l1.02 -12.88c0.17,-2.08 0.68,-3.65 1.53,-4.75 0.84,-1.15 2.37,-1.7 4.57,-1.7l7.38 0c1.86,0 3.43,0.55 4.7,1.66 1.28,1.1 1.91,2.67 1.91,4.7l0 112.92c0,1.69 -0.63,3.05 -1.91,4.06 -1.27,1.02 -2.84,1.53 -4.7,1.53l-8.14 0c-4.24,0 -6.36,-2.12 -6.36,-6.36zm-78.07 -55.56c0,5.93 0.93,11.48 2.8,16.74 1.86,5.21 4.53,9.83 8.01,13.82 3.47,3.98 7.67,7.07 12.59,9.36 4.91,2.29 10.34,3.44 16.27,3.44 6.11,0 11.53,-1.11 16.28,-3.31 4.75,-2.2 8.77,-5.17 12.08,-8.99 3.3,-3.81 5.8,-8.35 7.5,-13.56 1.7,-5.26 2.54,-10.89 2.54,-17 0,-5.93 -0.84,-11.52 -2.54,-16.87 -1.7,-5.34 -4.15,-9.96 -7.37,-13.94 -3.23,-3.98 -7.21,-7.12 -11.96,-9.49 -4.74,-2.38 -10.25,-3.56 -16.53,-3.56 -6.1,0 -11.61,1.14 -16.53,3.43 -4.91,2.29 -9.07,5.38 -12.46,9.37 -3.39,3.98 -6.02,8.6 -7.88,13.81 -1.87,5.26 -2.8,10.81 -2.8,16.75zm296.71 58.36l0 -15.26c-2.04,2.54 -4.41,5.13 -7.12,7.76 -2.71,2.63 -5.72,4.96 -9.03,6.99 -3.31,2.04 -6.78,3.69 -10.43,4.96 -3.64,1.27 -7.41,1.91 -11.31,1.91 -8.65,0 -16.62,-1.7 -23.91,-5.09 -7.29,-3.39 -13.52,-8.01 -18.69,-13.86 -5.17,-5.85 -9.24,-12.71 -12.21,-20.6 -2.96,-7.88 -4.45,-16.32 -4.45,-25.3 0,-8.99 1.53,-17.46 4.58,-25.43 3.05,-7.97 7.25,-14.88 12.59,-20.73 5.34,-5.85 11.61,-10.47 18.82,-13.86 7.2,-3.39 14.96,-5.08 23.27,-5.08 8.64,0 16.15,1.9 22.5,5.72 6.36,3.81 11.49,8.43 15.39,13.86l0 -10.43c0,-1.86 0.51,-3.39 1.52,-4.58 1.02,-1.18 2.8,-1.78 5.35,-1.78l8.13 0c1.87,0 3.56,0.55 5.09,1.66 1.53,1.1 2.29,2.67 2.29,4.7l0 106.05c0,10.68 -1.57,20.05 -4.71,28.1 -3.13,8.05 -7.41,14.75 -12.92,20.09 -5.51,5.34 -12,9.32 -19.54,11.95 -7.51,2.63 -15.6,3.94 -24.21,3.94 -7.12,0 -13.47,-0.8 -19.15,-2.41 -5.68,-1.61 -10.94,-4.03 -15.86,-7.25 -2.03,-1.19 -3.05,-2.29 -3.05,-3.31 0,-0.34 0.17,-0.84 0.51,-1.52 0.34,-0.68 0.59,-1.1 0.76,-1.27l7.08 -12.21c0.85,-1.02 2.04,-1.53 3.56,-1.53 0.85,0 1.78,0.34 2.8,1.02 3.22,2.2 6.87,3.99 11.02,5.34 4.15,1.36 8.14,2.04 12.04,2.04 4.75,0 9.41,-0.81 14.07,-2.42 4.66,-1.61 8.82,-3.9 12.55,-6.87 3.73,-2.96 6.73,-6.57 9.11,-10.8 2.37,-4.24 3.56,-9.08 3.56,-14.5zm-75.28 -58.62c0,6.1 0.98,11.74 2.93,17 1.95,5.21 4.62,9.79 8.09,13.69 3.48,3.9 7.51,6.95 12.04,9.24 4.58,2.29 9.37,3.43 14.45,3.43 4.92,0 9.63,-1.1 14.2,-3.3 4.58,-2.21 8.56,-5.22 12.04,-9.12 3.48,-3.9 6.23,-8.43 8.35,-13.56 2.12,-5.17 3.18,-10.68 3.18,-16.62 0,-5.93 -0.98,-11.52 -2.93,-16.87 -1.95,-5.34 -4.62,-10 -8.09,-14.07 -3.48,-4.07 -7.5,-7.24 -12.04,-9.62 -4.58,-2.37 -9.45,-3.56 -14.71,-3.56 -5.08,0 -9.87,1.15 -14.45,3.43 -4.53,2.29 -8.56,5.39 -12.04,9.37 -3.47,3.99 -6.14,8.61 -8.09,13.82 -1.95,5.25 -2.93,10.81 -2.93,16.74zm231.61 -57.09l0 113.68c0,3.73 -1.87,5.59 -5.6,5.59l-10.68 0c-3.73,0 -5.59,-1.86 -5.59,-5.59l0 -113.68c0,-3.73 1.86,-5.6 5.59,-5.6l10.68 0c3.73,0 5.6,1.87 5.6,5.6zm-26.96 -40.56c0,-4.37 1.57,-8.1 4.71,-11.24 3.13,-3.09 6.91,-4.66 11.31,-4.66 4.58,0 8.4,1.57 11.45,4.66 3.05,3.14 4.58,6.87 4.58,11.24 0,4.36 -1.53,8.05 -4.58,11.1 -3.05,3.01 -6.87,4.54 -11.45,4.54 -4.4,0 -8.18,-1.53 -11.31,-4.54 -3.14,-3.05 -4.71,-6.74 -4.71,-11.1zm158.88 40.86l0.76 11.44c2.03,-2.37 4.66,-4.71 7.93,-7.08 3.22,-2.33 6.78,-4.41 10.68,-6.27 3.94,-1.82 8.01,-3.35 12.25,-4.49 4.23,-1.19 8.26,-1.78 11.99,-1.78 7.29,0 13.95,1.39 19.88,4.19 5.98,2.8 11.02,6.57 15.17,11.32 4.16,4.75 7.38,10.34 9.58,16.78 2.21,6.44 3.31,13.4 3.31,20.86l0 67.64c0,2.04 -0.59,3.6 -1.78,4.71 -1.23,1.1 -2.67,1.65 -4.41,1.65l-10.51 0c-2.42,0 -3.99,-0.51 -4.66,-1.53 -0.68,-1.01 -1.02,-2.54 -1.02,-4.57l0 -68.07c0,-4.24 -0.72,-8.31 -2.16,-12.13 -1.44,-3.81 -3.52,-7.12 -6.23,-9.91 -2.72,-2.84 -5.98,-5.09 -9.79,-6.79 -3.82,-1.69 -8.18,-2.54 -13.1,-2.54 -4.24,0 -8.56,0.76 -12.97,2.29 -4.41,1.53 -8.39,3.56 -11.95,6.1 -3.56,2.59 -6.49,5.47 -8.78,8.69 -2.29,3.22 -3.43,6.53 -3.43,9.92l0 72.95c0,3.73 -1.87,5.59 -5.6,5.59l-10.42 0c-3.9,0 -5.85,-1.86 -5.85,-5.59l0 -113.38c0,-1.87 0.55,-3.27 1.65,-4.2 1.1,-0.93 2.42,-1.4 3.94,-1.4l9.67 0c3.56,0 5.51,1.87 5.85,5.6z"/>
    <path class="fil2" d="M6118.37 1532.29l0 -11.95c-3.73,5.76 -8.47,10.68 -14.24,14.75 -5.76,4.07 -13.82,6.1 -24.16,6.1 -8.81,0 -16.95,-1.65 -24.41,-4.96 -7.46,-3.3 -13.9,-7.88 -19.33,-13.73 -5.42,-5.85 -9.62,-12.71 -12.59,-20.6 -2.96,-7.88 -4.45,-16.32 -4.45,-25.3 0,-8.99 1.49,-17.42 4.45,-25.31 2.97,-7.88 7.12,-14.75 12.46,-20.59 5.34,-5.85 11.74,-10.47 19.2,-13.86 7.46,-3.4 15.69,-5.09 24.67,-5.09 5.26,0 9.84,0.59 13.74,1.82 3.89,1.19 7.37,2.76 10.42,4.75 3.05,1.95 5.72,4.24 8.01,6.82 2.29,2.55 4.37,5.22 6.23,7.97l1.02 -12.88c0.17,-2.08 0.68,-3.65 1.53,-4.75 0.84,-1.15 2.37,-1.7 4.57,-1.7l7.38 0c1.86,0 3.43,0.55 4.7,1.66 1.28,1.1 1.91,2.67 1.91,4.7l0 112.92c0,1.69 -0.63,3.05 -1.91,4.06 -1.27,1.02 -2.84,1.53 -4.7,1.53l-8.14 0c-4.24,0 -6.36,-2.12 -6.36,-6.36zm-78.07 -55.56c0,5.93 0.93,11.48 2.8,16.74 1.86,5.21 4.53,9.83 8.01,13.82 3.47,3.98 7.67,7.07 12.59,9.36 4.91,2.29 10.34,3.44 16.27,3.44 6.11,0 11.53,-1.11 16.28,-3.31 4.75,-2.2 8.77,-5.17 12.08,-8.99 3.3,-3.81 5.8,-8.35 7.5,-13.56 1.7,-5.26 2.54,-10.89 2.54,-17 0,-5.93 -0.84,-11.52 -2.54,-16.87 -1.7,-5.34 -4.15,-9.96 -7.37,-13.94 -3.23,-3.98 -7.21,-7.12 -11.96,-9.49 -4.74,-2.38 -10.25,-3.56 -16.53,-3.56 -6.1,0 -11.61,1.14 -16.53,3.43 -4.91,2.29 -9.07,5.38 -12.46,9.37 -3.39,3.98 -6.02,8.6 -7.88,13.81 -1.87,5.26 -2.8,10.81 -2.8,16.75zm253.48 63.95c-0.68,0 -1.32,0.05 -1.91,0.13 -0.59,0.09 -1.32,0.13 -2.16,0.13 -4.07,0 -8.01,-0.3 -11.87,-0.89 -3.86,-0.59 -7.25,-1.95 -10.13,-4.07 -2.93,-2.12 -5.3,-5.21 -7.08,-9.28 -1.82,-4.07 -2.71,-9.5 -2.71,-16.28l0 -76.29 -15.26 0c-2.03,0 -3.6,-0.38 -4.7,-1.15 -1.11,-0.76 -1.66,-2.24 -1.66,-4.45l0 -9.41c0,-2.2 0.55,-3.64 1.66,-4.32 1.1,-0.68 2.67,-1.02 4.7,-1.02l15.26 0 0 -35.85c0,-2.72 1.44,-4.41 4.36,-5.09l13.14 -1.78c2.04,0 3.39,0.68 3.99,2.03 0.59,1.36 0.89,2.89 0.89,4.58l0 36.11 18.82 0c3.73,0 5.59,1.95 5.59,5.85l0 8.4c0,4.06 -1.86,6.1 -5.59,6.1l-18.82 0 0 68.15c0,4.24 0.21,7.55 0.63,9.92 0.43,2.38 1.19,4.16 2.29,5.34 1.1,1.19 2.5,1.91 4.2,2.16 1.69,0.26 3.81,0.39 6.36,0.39 4.23,0 6.35,2.11 6.35,6.35l0 8.14c0,3.73 -2.12,5.77 -6.35,6.1zm131.4 -121.3l0 113.68c0,3.73 -1.87,5.59 -5.6,5.59l-10.68 0c-3.73,0 -5.59,-1.86 -5.59,-5.59l0 -113.68c0,-3.73 1.86,-5.6 5.59,-5.6l10.68 0c3.73,0 5.6,1.87 5.6,5.6zm-26.96 -40.56c0,-4.37 1.57,-8.1 4.71,-11.24 3.13,-3.09 6.91,-4.66 11.31,-4.66 4.58,0 8.4,1.57 11.45,4.66 3.05,3.14 4.58,6.87 4.58,11.24 0,4.36 -1.53,8.05 -4.58,11.1 -3.05,3.01 -6.87,4.54 -11.45,4.54 -4.4,0 -8.18,-1.53 -11.31,-4.54 -3.14,-3.05 -4.71,-6.74 -4.71,-11.1zm128.36 97.78c0,-8.99 1.7,-17.46 5.09,-25.43 3.39,-7.97 8.01,-14.92 13.86,-20.86 5.84,-5.93 12.75,-10.59 20.72,-13.98 7.97,-3.39 16.45,-5.09 25.43,-5.09 8.99,0 17.47,1.7 25.43,5.09 7.97,3.39 14.92,8.05 20.86,13.98 5.93,5.94 10.59,12.89 13.98,20.86 3.4,7.97 5.09,16.44 5.09,25.43 0,8.98 -1.69,17.46 -5.09,25.43 -3.39,7.97 -8.05,14.88 -13.98,20.73 -5.94,5.84 -12.89,10.46 -20.86,13.86 -7.96,3.39 -16.44,5.08 -25.43,5.08 -8.98,0 -17.46,-1.69 -25.43,-5.08 -7.97,-3.4 -14.88,-8.02 -20.72,-13.86 -5.85,-5.85 -10.47,-12.76 -13.86,-20.73 -3.39,-7.97 -5.09,-16.45 -5.09,-25.43zm20.6 0c0,6.1 1.19,11.87 3.56,17.29 2.37,5.43 5.55,10.17 9.54,14.24 3.98,4.07 8.68,7.29 14.11,9.67 5.43,2.37 11.19,3.56 17.29,3.56 6.11,0 11.87,-1.19 17.3,-3.56 5.42,-2.38 10.17,-5.6 14.24,-9.67 4.07,-4.07 7.29,-8.81 9.66,-14.24 2.37,-5.42 3.56,-11.19 3.56,-17.29 0,-6.11 -1.19,-11.87 -3.56,-17.29 -2.37,-5.43 -5.59,-10.22 -9.66,-14.37 -4.07,-4.16 -8.82,-7.42 -14.24,-9.79 -5.43,-2.38 -11.19,-3.56 -17.3,-3.56 -6.1,0 -11.86,1.18 -17.29,3.56 -5.43,2.37 -10.13,5.63 -14.11,9.79 -3.99,4.15 -7.17,8.94 -9.54,14.37 -2.37,5.42 -3.56,11.18 -3.56,17.29zm234.66 -56.92l0.76 11.44c2.03,-2.37 4.66,-4.71 7.93,-7.08 3.22,-2.33 6.78,-4.41 10.68,-6.27 3.94,-1.82 8.01,-3.35 12.25,-4.49 4.23,-1.19 8.26,-1.78 11.99,-1.78 7.29,0 13.95,1.39 19.88,4.19 5.98,2.8 11.02,6.57 15.17,11.32 4.16,4.75 7.38,10.34 9.58,16.78 2.21,6.44 3.31,13.4 3.31,20.86l0 67.64c0,2.04 -0.59,3.6 -1.78,4.71 -1.23,1.1 -2.67,1.65 -4.41,1.65l-10.51 0c-2.42,0 -3.99,-0.51 -4.66,-1.53 -0.68,-1.01 -1.02,-2.54 -1.02,-4.57l0 -68.07c0,-4.24 -0.72,-8.31 -2.16,-12.13 -1.44,-3.81 -3.52,-7.12 -6.23,-9.91 -2.72,-2.84 -5.98,-5.09 -9.79,-6.79 -3.82,-1.69 -8.18,-2.54 -13.1,-2.54 -4.24,0 -8.56,0.76 -12.97,2.29 -4.41,1.53 -8.39,3.56 -11.95,6.1 -3.56,2.59 -6.49,5.47 -8.78,8.69 -2.29,3.22 -3.43,6.53 -3.43,9.92l0 72.95c0,3.73 -1.87,5.59 -5.6,5.59l-10.42 0c-3.9,0 -5.85,-1.86 -5.85,-5.59l0 -113.38c0,-1.87 0.55,-3.27 1.65,-4.2 1.1,-0.93 2.42,-1.4 3.94,-1.4l9.67 0c3.56,0 5.51,1.87 5.85,5.6z"/>
   </g>
   <g>
    <polygon class="fil3" points="313.2,13.9 1583.63,13.9 1583.63,1530.36 -0,1530.36 -0,345.18 "/>
    <path class="fil4" d="M313.22 13.9l120.75 408.65 -433.97 0 0 -77.35 313.22 -331.3zm92.19 1392.31c-44.03,-37.75 -103.17,-101.86 -155.66,-203.82l839.96 0c111.65,3.51 241.04,-29.22 389.12,-119.37 -133.13,250.58 -347.72,447.34 -638.98,447.34 -161.7,0 -315.17,-8.01 -434.44,-124.15zm44.49 -929.74l55.13 186.57 -433.17 0 -57.08 -186.57 435.12 0zm71.06 240.5l7.28 24.6c0,0 29.21,75.24 90.24,164.92l-472.13 0 -57.99 -189.52 432.6 0zm137.11 243.44c55.29,69.83 128.87,141.07 221.85,188.06l-655.64 0c-22.04,-50.98 -42.08,-109.74 -58.17,-177.4l-3.26 -10.66 495.22 0z"/>
    <path class="fil4" d="M805.49 265.48l47.79 156.76 433.09 0 -48.98 -160.36 -433.71 0 1.81 3.6zm64.23 210.68l56.88 186.57 433.23 0 -56.98 -186.57 -433.13 0zm73.32 240.5l77.47 254.1c0,0 316.86,67.17 356.47,-251.88l-0.68 -2.22 -433.26 0zm277.88 -508.7l-59.27 -194.06 -136.5 0 -181.9 194.06 377.67 0z"/>
   </g>
  </g>
 </g>
</svg>
